<?xml version="1.0" encoding="utf-8"?>
<!-- Generator: Adobe Illustrator 21.1.0, SVG Export Plug-In . SVG Version: 6.00 Build 0)  -->
<svg version="1.1" id="Layer_1" xmlns="http://www.w3.org/2000/svg" xmlns:xlink="http://www.w3.org/1999/xlink" x="0px" y="0px"
	 viewBox="0 0 24 24" style="enable-background:new 0 0 24 24;" xml:space="preserve">
<style type="text/css">
	.st0{enable-background:new    ;}
	.st1{fill:#00857c;}
</style>
<g class="st0">
	<path class="st1" d="M12,0c6.6,0,12,5.4,12,12c0,6.6-5.4,12-12,12C5.4,24,0,18.6,0,12C0,5.4,5.4,0,12,0z M12,22.4
		c5.7,0,10.4-4.7,10.4-10.4c0-5.7-4.7-10.4-10.4-10.4C6.3,1.6,1.6,6.3,1.6,12C1.6,17.7,6.3,22.4,12,22.4z M16.6,5.4l-0.7,1.8
		c-1.3-0.5-2.1-0.8-3.6-0.8c-2.9,0-5,2.2-5,5.7c0,3.7,2.1,5.6,5,5.6c1.5,0,3-0.8,4.2-1.7l0.9,1.6c0,0-2.5,1.9-5.1,1.9
		c-4.8,0-7.2-3-7.2-7.5c0-4.3,2.4-7.5,7.2-7.5C14,4.5,15.3,4.8,16.6,5.4z"/>
</g>
</svg>
